<?xml version="1.0" standalone="no"?>
<!DOCTYPE svg PUBLIC "-//W3C//DTD SVG 20010904//EN"
 "http://www.w3.org/TR/2001/REC-SVG-20010904/DTD/svg10.dtd">
<svg version="1.0" xmlns="http://www.w3.org/2000/svg"
 width="330.000000pt" height="330.000000pt" viewBox="0 0 330.000000 330.000000"
 preserveAspectRatio="xMidYMid meet">

<g transform="translate(0.000000,330.000000) scale(0.100000,-0.100000)"
fill="#000000" stroke="none">
<path d="M1383 3233 c9 -2 25 -2 35 0 9 3 1 5 -18 5 -19 0 -27 -2 -17 -5z"/>
<path d="M1940 3163 c-41 -31 -86 -67 -100 -80 -14 -13 -28 -23 -33 -23 -4 0
-6 -4 -3 -9 3 -5 32 -12 63 -15 67 -8 214 -46 291 -76 63 -24 66 -24 86 -5 9
9 26 22 38 28 49 27 128 80 128 86 0 23 -316 151 -375 151 -11 0 -54 -26 -95
-57z"/>
<path d="M1413 3203 c9 -2 25 -2 35 0 9 3 1 5 -18 5 -19 0 -27 -2 -17 -5z"/>
<path d="M1488 3163 c7 -3 16 -2 19 1 4 3 -2 6 -13 5 -11 0 -14 -3 -6 -6z"/>
<path d="M1050 3149 c0 -5 5 -7 10 -4 6 3 10 8 10 11 0 2 -4 4 -10 4 -5 0 -10
-5 -10 -11z"/>
<path d="M2465 3020 c3 -5 11 -10 16 -10 6 0 7 5 4 10 -3 6 -11 10 -16 10 -6
0 -7 -4 -4 -10z"/>
<path d="M835 3000 c3 -5 8 -10 11 -10 2 0 4 5 4 10 0 6 -5 10 -11 10 -5 0 -7
-4 -4 -10z"/>
<path d="M2440 3000 c0 -5 5 -10 10 -10 6 0 10 5 10 10 0 6 -4 10 -10 10 -5 0
-10 -4 -10 -10z"/>
<path d="M2475 2980 c3 -5 11 -10 16 -10 6 0 7 5 4 10 -3 6 -11 10 -16 10 -6
0 -7 -4 -4 -10z"/>
<path d="M1100 2960 c-9 -6 -10 -10 -3 -10 6 0 15 5 18 10 8 12 4 12 -15 0z"/>
<path d="M900 2920 c0 -5 5 -10 10 -10 6 0 10 5 10 10 0 6 -4 10 -10 10 -5 0
-10 -4 -10 -10z"/>
<path d="M835 2840 c3 -5 8 -10 11 -10 2 0 4 5 4 10 0 6 -5 10 -11 10 -5 0 -7
-4 -4 -10z"/>
<path d="M2790 2774 c0 -5 -31 -33 -70 -63 -38 -29 -70 -55 -70 -57 0 -3 33
-44 74 -92 40 -48 95 -120 120 -160 l47 -74 47 43 c52 47 102 98 102 105 0 15
-152 218 -195 259 -33 31 -55 47 -55 39z"/>
<path d="M675 2730 c-3 -5 -1 -10 4 -10 6 0 11 5 11 10 0 6 -2 10 -4 10 -3 0
-8 -4 -11 -10z"/>
<path d="M400 2650 c0 -5 5 -10 10 -10 6 0 10 5 10 10 0 6 -4 10 -10 10 -5 0
-10 -4 -10 -10z"/>
<path d="M348 2543 c7 -3 16 -2 19 1 4 3 -2 6 -13 5 -11 0 -14 -3 -6 -6z"/>
<path d="M1695 2530 c-11 -12 -19 -36 -19 -55 0 -47 28 -75 74 -75 43 0 67 21
76 67 13 66 -86 113 -131 63z"/>
<path d="M305 2510 c-3 -5 -1 -10 4 -10 6 0 11 5 11 10 0 6 -2 10 -4 10 -3 0
-8 -4 -11 -10z"/>
<path d="M1422 2495 c-43 -24 -82 -69 -93 -108 -23 -86 22 -191 97 -227 140
-68 293 67 244 214 -32 98 -169 165 -248 121z"/>
<path d="M490 2490 c0 -5 5 -10 11 -10 5 0 7 5 4 10 -3 6 -8 10 -11 10 -2 0
-4 -4 -4 -10z"/>
<path d="M174 2435 c-10 -8 -14 -15 -8 -15 6 0 17 7 24 15 16 19 9 19 -16 0z"/>
<path d="M1906 2415 c-55 -39 -101 -55 -159 -55 -34 0 -37 -2 -32 -23 4 -13
-3 -51 -14 -85 -20 -58 -27 -102 -16 -102 12 0 115 50 153 74 27 17 42 33 42
47 0 12 23 42 55 73 40 38 55 59 55 79 0 37 -24 35 -84 -8z"/>
<path d="M2152 2432 c-13 -2 -70 -48 -127 -102 -180 -171 -290 -220 -635 -284
-216 -39 -265 -47 -415 -61 -172 -17 -195 -26 -195 -75 0 -15 11 -36 25 -50
25 -23 35 -25 208 -31 100 -4 212 -8 248 -8 38 -1 73 -7 84 -15 25 -18 44
-138 38 -237 l-6 -79 50 0 c58 0 143 -38 167 -75 25 -39 37 -107 25 -149 -6
-21 -9 -40 -6 -42 4 -5 85 47 134 86 28 22 82 27 101 8 9 -9 12 -6 12 16 0 21
-14 41 -54 79 -117 112 -206 253 -206 326 0 24 9 42 34 67 19 19 42 34 53 34
29 0 70 -25 105 -66 47 -54 58 -64 68 -64 6 0 5 11 0 26 -15 37 -12 110 5 151
9 21 75 94 164 182 122 120 154 158 180 212 31 64 32 68 18 102 -17 39 -40 55
-75 49z"/>
<path d="M127 2404 c6 -15 23 -19 23 -5 0 5 -7 11 -14 14 -10 4 -13 1 -9 -9z"/>
<path d="M1788 2383 c7 -3 16 -2 19 1 4 3 -2 6 -13 5 -11 0 -14 -3 -6 -6z"/>
<path d="M3030 2381 c0 -6 5 -13 10 -16 6 -3 10 1 10 9 0 9 -4 16 -10 16 -5 0
-10 -4 -10 -9z"/>
<path d="M2947 2343 c-4 -3 -7 -11 -7 -17 0 -6 5 -5 12 2 6 6 9 14 7 17 -3 3
-9 2 -12 -2z"/>
<path d="M205 2330 c3 -5 8 -10 11 -10 2 0 4 5 4 10 0 6 -5 10 -11 10 -5 0 -7
-4 -4 -10z"/>
<path d="M230 2330 c0 -5 5 -10 10 -10 6 0 10 5 10 10 0 6 -4 10 -10 10 -5 0
-10 -4 -10 -10z"/>
<path d="M3055 2320 c-3 -5 1 -10 10 -10 9 0 13 5 10 10 -3 6 -8 10 -10 10 -2
0 -7 -4 -10 -10z"/>
<path d="M165 2310 c-3 -5 -2 -10 4 -10 5 0 13 5 16 10 3 6 2 10 -4 10 -5 0
-13 -4 -16 -10z"/>
<path d="M2920 2298 c0 -9 5 -20 10 -23 13 -8 13 5 0 25 -8 13 -10 13 -10 -2z"/>
<path d="M2960 2303 c0 -5 5 -15 10 -23 8 -12 10 -11 10 8 0 12 -4 22 -10 22
-5 0 -10 -3 -10 -7z"/>
<path d="M3150 2223 c0 -12 5 -25 11 -28 17 -11 18 -2 4 25 -14 24 -14 24 -15
3z"/>
<path d="M3207 2223 c-4 -3 -7 -16 -6 -27 0 -19 1 -19 10 3 10 24 8 36 -4 24z"/>
<path d="M3063 2168 c-38 -27 -39 -28 -14 -56 13 -16 28 -21 57 -19 31 2 39
-2 42 -18 2 -14 0 -16 -6 -7 -7 10 -11 10 -21 -2 -24 -29 -6 -38 23 -11 l28
26 -27 34 c-14 20 -23 40 -19 46 4 7 1 10 -7 7 -8 -3 -16 -15 -17 -29 -5 -34
-15 -41 -36 -26 -17 12 -16 15 9 45 32 38 30 39 -12 10z"/>
<path d="M3161 2171 c-8 -6 -9 -11 -3 -15 6 -3 14 -1 17 5 9 14 2 20 -14 10z"/>
<path d="M3180 2131 c0 -5 5 -13 10 -16 6 -3 10 -2 10 4 0 5 -4 13 -10 16 -5
3 -10 2 -10 -4z"/>
<path d="M3000 2093 c0 -5 5 -15 10 -23 8 -12 10 -11 10 8 0 12 -4 22 -10 22
-5 0 -10 -3 -10 -7z"/>
<path d="M3200 2066 c0 -8 5 -18 10 -21 6 -3 10 3 10 14 0 12 -4 21 -10 21 -5
0 -10 -6 -10 -14z"/>
<path d="M998 2003 c6 -2 18 -2 25 0 6 3 1 5 -13 5 -14 0 -19 -2 -12 -5z"/>
<path d="M3071 1974 c0 -11 3 -14 6 -6 3 7 2 16 -1 19 -3 4 -6 -2 -5 -13z"/>
<path d="M3100 1970 c0 -5 5 -10 10 -10 6 0 10 5 10 10 0 6 -4 10 -10 10 -5 0
-10 -4 -10 -10z"/>
<path d="M3251 1874 c0 -11 3 -14 6 -6 3 7 2 16 -1 19 -3 4 -6 -2 -5 -13z"/>
<path d="M2458 1863 c-8 -10 -30 -47 -49 -83 -110 -213 -241 -293 -402 -246
-59 17 -111 62 -250 214 -52 57 -67 62 -97 32 -53 -53 1 -162 157 -319 l113
-113 12 -244 c12 -239 12 -244 32 -238 39 12 180 113 259 185 l77 71 0 128 0
129 64 72 c98 108 156 244 156 365 0 54 -42 81 -72 47z"/>
<path d="M154 1774 c-157 -120 -147 -106 -141 -201 6 -99 12 -111 41 -86 11
10 58 43 102 72 l81 54 11 116 c6 64 9 117 8 119 -2 1 -47 -32 -102 -74z"/>
<path d="M2000 1829 c-58 -49 -72 -97 -46 -160 41 -97 148 -122 219 -51 57 58
45 175 -22 215 -41 24 -119 22 -151 -4z"/>
<path d="M3224 1653 c-17 -16 -61 -54 -98 -86 -46 -41 -66 -65 -66 -82 0 -42
-38 -218 -64 -292 -14 -40 -23 -73 -21 -73 9 0 140 107 181 148 24 23 48 42
54 42 14 0 12 -48 -5 -95 -8 -21 -13 -41 -11 -42 10 -10 25 35 46 132 24 115
41 375 24 375 -5 0 -23 -12 -40 -27z"/>
<path d="M165 1530 c-3 -5 1 -10 9 -10 9 0 16 5 16 10 0 6 -4 10 -9 10 -6 0
-13 -4 -16 -10z"/>
<path d="M225 1520 c3 -5 8 -10 11 -10 2 0 4 5 4 10 0 6 -5 10 -11 10 -5 0 -7
-4 -4 -10z"/>
<path d="M1468 1463 c7 -3 16 -2 19 1 4 3 -2 6 -13 5 -11 0 -14 -3 -6 -6z"/>
<path d="M1390 1432 c-34 -11 -70 -67 -70 -111 0 -68 60 -131 125 -131 65 0
125 63 125 133 0 56 -50 108 -110 113 -25 1 -56 0 -70 -4z"/>
<path d="M245 1329 c-9 -28 -2 -33 13 -9 6 11 8 21 3 25 -5 3 -13 -4 -16 -16z"/>
<path d="M1800 1316 c0 -2 7 -7 16 -10 8 -3 12 -2 9 4 -6 10 -25 14 -25 6z"/>
<path d="M170 1291 c0 -5 6 -11 14 -14 9 -4 12 -15 9 -32 -7 -33 -26 -27 -33
11 l-6 29 -13 -24 c-13 -23 -11 -27 13 -48 28 -24 46 -23 46 2 0 7 7 16 16 19
14 5 14 8 0 21 -8 9 -13 22 -10 30 4 10 0 15 -15 15 -12 0 -21 -4 -21 -9z"/>
<path d="M264 1278 c3 -13 6 -27 6 -33 0 -5 4 -4 9 4 10 16 3 51 -11 51 -6 0
-8 -10 -4 -22z"/>
<path d="M1749 1267 c-19 -13 -56 -39 -84 -59 -78 -55 -141 -72 -249 -65 -75
5 -109 13 -194 47 -56 22 -107 38 -112 35 -6 -4 -10 -19 -10 -34 0 -37 70
-103 163 -155 l67 -38 0 -121 c0 -67 4 -128 9 -136 7 -11 37 -13 142 -9 74 2
140 7 147 11 8 6 12 44 12 133 0 92 4 133 15 154 9 17 19 30 24 30 5 0 36 27
69 59 42 41 64 72 71 99 20 73 -8 92 -70 49z"/>
<path d="M230 1208 c0 -18 5 -28 15 -28 19 0 19 11 0 36 -14 18 -14 18 -15 -8z"/>
<path d="M90 1182 c0 -19 -7 -35 -17 -41 -10 -6 -13 -10 -8 -10 14 0 55 35 55
47 0 5 -7 15 -15 22 -13 11 -15 8 -15 -18z"/>
<path d="M190 1154 c0 -8 5 -12 10 -9 6 3 10 10 10 16 0 5 -4 9 -10 9 -5 0
-10 -7 -10 -16z"/>
<path d="M3100 943 c-30 -59 -58 -109 -62 -111 -5 -2 -8 -8 -8 -14 0 -50 -286
-385 -369 -432 -9 -5 -21 -15 -27 -21 -37 -36 -268 -178 -318 -195 -19 -6 -38
-16 -41 -21 -4 -5 -13 -9 -22 -9 -8 0 -29 -6 -46 -14 -95 -43 -375 -101 -454
-94 l-33 3 61 50 c34 28 73 61 88 75 14 14 46 42 71 62 51 43 47 44 -70 23
-47 -8 -127 -15 -178 -15 l-92 0 -109 -95 c-61 -52 -116 -96 -123 -96 -42 -4
88 -19 212 -25 244 -11 462 25 685 116 312 127 599 371 771 655 50 82 127 242
122 255 -2 6 -28 -37 -58 -97z"/>
<path d="M385 814 c-38 -31 -74 -64 -79 -75 -11 -24 41 -94 178 -237 l99 -103
-37 -38 c-38 -39 -38 -39 -16 -51 19 -10 26 -8 55 20 32 31 34 32 70 19 25 -9
38 -10 43 -3 4 6 32 33 62 59 86 76 87 77 34 115 -68 48 -212 195 -273 278
-30 39 -57 72 -60 72 -3 -1 -37 -26 -76 -56z"/>
<path d="M958 363 c7 -3 16 -2 19 1 4 3 -2 6 -13 5 -11 0 -14 -3 -6 -6z"/>
<path d="M1078 303 c7 -3 16 -2 19 1 4 3 -2 6 -13 5 -11 0 -14 -3 -6 -6z"/>
<path d="M918 253 c7 -3 16 -2 19 1 4 3 -2 6 -13 5 -11 0 -14 -3 -6 -6z"/>
<path d="M918 223 c7 -3 16 -2 19 1 4 3 -2 6 -13 5 -11 0 -14 -3 -6 -6z"/>
<path d="M1160 215 c0 -8 5 -15 10 -15 6 0 10 7 10 15 0 8 -4 15 -10 15 -5 0
-10 -7 -10 -15z"/>
<path d="M880 210 c0 -5 5 -10 11 -10 5 0 7 5 4 10 -3 6 -8 10 -11 10 -2 0 -4
-4 -4 -10z"/>
<path d="M910 190 c0 -5 4 -10 9 -10 5 0 18 -3 28 -6 16 -6 16 -5 -2 9 -23 19
-35 21 -35 7z"/>
<path d="M970 160 c0 -5 5 -10 10 -10 6 0 10 5 10 10 0 6 -4 10 -10 10 -5 0
-10 -4 -10 -10z"/>
<path d="M1000 146 c0 -2 9 -6 20 -9 11 -3 18 -1 14 4 -5 9 -34 13 -34 5z"/>
</g>
</svg>
